<?xml version="1.0" encoding="UTF-8" standalone="no"?>
<!-- Created with Inkscape (http://www.inkscape.org/) -->

<svg
   xmlns:dc="http://purl.org/dc/elements/1.1/"
   xmlns:cc="http://creativecommons.org/ns#"
   xmlns:rdf="http://www.w3.org/1999/02/22-rdf-syntax-ns#"
   xmlns:svg="http://www.w3.org/2000/svg"
   xmlns="http://www.w3.org/2000/svg"
   xmlns:sodipodi="http://sodipodi.sourceforge.net/DTD/sodipodi-0.dtd"
   xmlns:inkscape="http://www.inkscape.org/namespaces/inkscape"
   width="300"
   height="315.92258"
   viewBox="0 0 79.374998 83.587851"
   version="1.1"
   id="svg8"
   sodipodi:docname="klab-spinner.svg"
   inkscape:version="0.92.3 (2405546, 2018-03-11)">
  <defs
     id="defs2" />
  <sodipodi:namedview
     id="base"
     pagecolor="#ffffff"
     bordercolor="#666666"
     borderopacity="1.0"
     inkscape:pageopacity="0.0"
     inkscape:pageshadow="2"
     inkscape:zoom="0.96019984"
     inkscape:cx="-86.377669"
     inkscape:cy="7.1105682"
     inkscape:document-units="mm"
     inkscape:current-layer="layer1"
     showgrid="false"
     inkscape:window-width="1920"
     inkscape:window-height="1027"
     inkscape:window-x="-8"
     inkscape:window-y="-8"
     inkscape:window-maximized="1"
     units="px"
     fit-margin-top="0"
     fit-margin-left="0"
     fit-margin-right="0"
     fit-margin-bottom="0" />
  <metadata
     id="metadata5">
    <rdf:RDF>
      <cc:Work
         rdf:about="">
        <dc:format>image/svg+xml</dc:format>
        <dc:type
           rdf:resource="http://purl.org/dc/dcmitype/StillImage" />
        <dc:title></dc:title>
      </cc:Work>
    </rdf:RDF>
  </metadata>
  <g
     inkscape:label="Layer 1"
     inkscape:groupmode="layer"
     id="layer1"
     transform="translate(-43.465574,-155.36309)">
    <path
       inkscape:connector-curvature="0"
       id="path3779"
       d="m 84.761906,238.89691 c 0,-0.0472 0.177718,-0.38107 0.39493,-0.74197 0.771857,-1.28248 1.300501,-2.83671 1.496406,-4.3995 0.118584,-0.94597 0.06186,-2.66336 -0.118152,-3.57729 -0.452655,-2.29811 -1.703976,-4.55947 -3.403036,-6.14989 -0.724305,-0.67799 -1.984106,-1.57548 -2.211486,-1.57548 -0.09064,0 -0.192546,0.15648 -0.320257,0.49176 -0.103024,0.27047 -0.394454,0.90131 -0.647619,1.40186 -2.063804,4.08047 -5.842785,6.93029 -10.49457,7.9142 -0.941136,0.19907 -1.167485,0.21667 -2.832577,0.22029 -1.89835,0.004 -2.324699,-0.0413 -3.776767,-0.40279 -0.714189,-0.17777 -2.065045,-0.63908 -2.426232,-0.82854 -0.249068,-0.13064 -0.08703,-0.15492 0.420174,-0.0629 0.268834,0.0487 0.930316,0.11726 1.46996,0.15226 4.120871,0.26727 8.124227,-1.24106 11.044272,-4.16111 0.983977,-0.98397 2.149777,-2.51873 2.015345,-2.65316 -0.02523,-0.0252 -0.481065,0.13136 -1.012958,0.34799 -0.531896,0.21663 -1.25034,0.48519 -1.596543,0.59679 -5.67583,1.82978 -11.982248,1.04984 -17.01225,-2.10396 -1.896308,-1.18898 -3.760558,-2.85405 -5.058608,-4.51813 -6.00022,-7.69219 -8.405607,-17.44933 -6.681549,-27.10285 0.877584,-4.91386 3.422217,-10.91447 6.463713,-15.24236 3.265727,-4.64696 7.699742,-8.7707 12.223619,-11.36825 1.817326,-1.04349 4.399473,-2.28042 4.651024,-2.22798 0.07832,0.0163 -0.03255,0.23126 -0.364316,0.70627 -0.262299,0.37555 -0.476906,0.7201 -0.476906,0.76566 0,0.0864 0.03669,0.0969 0.856805,0.24397 1.043742,0.18718 1.048694,0.17147 -0.269839,0.85613 -3.628564,1.88418 -6.832545,4.30614 -9.417162,7.11867 -5.216708,5.6767 -8.286701,12.63953 -8.955297,20.31087 -0.187935,2.15631 -0.05861,5.80046 0.279223,7.86826 0.662357,4.05411 0.99254,5.25842 2.006227,7.31749 1.69321,3.43937 4.43127,6.19957 7.829024,7.89234 1.698712,0.8463 3.132315,1.30753 4.349814,1.39944 1.81375,0.13692 3.955992,-0.56681 5.257976,-1.72725 1.101979,-0.98218 2.355941,-3.4861 2.981274,-5.95302 0.465011,-1.83446 0.643659,-3.55702 0.742425,-7.15863 0.07646,-2.78836 0.150514,-3.40422 0.596221,-4.95855 1.433601,-4.99944 4.232628,-9.49639 7.748826,-12.44935 2.187936,-1.83747 5.170303,-3.40706 7.745929,-4.07663 2.992756,-0.778 5.837405,-0.89857 8.938285,-0.37886 l 0.987019,0.16543 0.403681,-0.24839 c 0.716064,-0.4406 1.300922,-0.62081 3.334596,-1.02747 5.38932,-1.07766 8.25512,-2.14273 11.38379,-4.23072 0.53497,-0.35703 0.99933,-0.64914 1.03193,-0.64914 0.07,0 1.20748,1.54798 1.8791,2.55719 5.81453,8.73721 7.92239,19.51705 5.83874,29.86008 -2.23225,11.08064 -9.0038,20.58749 -18.80377,26.39936 -4.75868,2.82212 -10.58176,4.73011 -16.051271,5.25933 -2.110794,0.20424 -2.439163,0.22155 -2.439163,0.12857 z M 80.873045,202.8082 c 0.500775,-0.24521 1.079707,-0.82967 1.292416,-1.30478 0.184082,-0.41116 0.124283,-0.49709 -0.559459,-0.80393 -1.242448,-0.55758 -2.95315,-0.20661 -3.953291,0.81106 -0.29403,0.29919 -0.36997,0.42588 -0.330263,0.55099 0.06103,0.19228 0.687223,0.66851 1.116678,0.84925 0.706768,0.29745 1.702662,0.25547 2.433919,-0.10259 z"
       style="fill:#010102;stroke-width:0.07868269" />
  </g>
</svg>
