<?xml version="1.0" encoding="UTF-8" standalone="no"?>
<!-- Created with Inkscape (http://www.inkscape.org/) -->

<svg
   xmlns:dc="http://purl.org/dc/elements/1.1/"
   xmlns:cc="http://creativecommons.org/ns#"
   xmlns:rdf="http://www.w3.org/1999/02/22-rdf-syntax-ns#"
   xmlns:svg="http://www.w3.org/2000/svg"
   xmlns="http://www.w3.org/2000/svg"
   xmlns:sodipodi="http://sodipodi.sourceforge.net/DTD/sodipodi-0.dtd"
   xmlns:inkscape="http://www.inkscape.org/namespaces/inkscape"
   width="66.652954mm"
   height="63.933449mm"
   viewBox="0 0 66.652954 63.933449"
   version="1.1"
   id="svg8"
   inkscape:version="0.92.3 (2405546, 2018-03-11)"
   sodipodi:docname="palette.svg">
  <defs
     id="defs2" />
  <sodipodi:namedview
     id="base"
     pagecolor="#ffffff"
     bordercolor="#666666"
     borderopacity="1.0"
     inkscape:pageopacity="0.0"
     inkscape:pageshadow="2"
     inkscape:zoom="1.4"
     inkscape:cx="105.27872"
     inkscape:cy="41.441968"
     inkscape:document-units="mm"
     inkscape:current-layer="layer1"
     showgrid="false"
     fit-margin-top="0"
     fit-margin-left="0"
     fit-margin-right="0"
     fit-margin-bottom="0"
     inkscape:window-width="1920"
     inkscape:window-height="1027"
     inkscape:window-x="-8"
     inkscape:window-y="-8"
     inkscape:window-maximized="1" />
  <metadata
     id="metadata5">
    <rdf:RDF>
      <cc:Work
         rdf:about="">
        <dc:format>image/svg+xml</dc:format>
        <dc:type
           rdf:resource="http://purl.org/dc/dcmitype/StillImage" />
        <dc:title></dc:title>
      </cc:Work>
    </rdf:RDF>
  </metadata>
  <g
     inkscape:label="Layer 1"
     inkscape:groupmode="layer"
     id="layer1"
     transform="translate(-43.512636,-75.476934)">
    <path
       inkscape:connector-curvature="0"
       id="path830"
       d="m 65.007346,139.22808 c -3.62134,-0.65438 -8.25857,-2.94269 -11.51828,-5.68389 -2.08151,-1.7504 -4.35556,-4.86403 -6.28029,-8.59896 -2.938412,-5.70196 -3.881766,-9.68393 -3.666874,-15.47812 0.16084,-4.33676 0.814465,-6.97548 2.707324,-10.929621 1.83188,-3.82674 4.13253,-6.96444 7.80137,-10.63976 4.87597,-4.88458 6.52192,-6.0301 10.77396,-7.49832 4.74444,-1.63824 7.19377,-2.10532 10.35461,-1.97462 2.19014,0.0906 2.74687,0.21232 3.92971,0.85946 1.4289,0.78177 2.37952,1.90801 3.14372,3.72453 0.59605,1.41681 0.77833,5.26627 0.38866,8.20777 -0.29989,2.26377 -0.39356,2.49385 -1.99056,4.8891 -2.63694,3.955001 -4.63969,8.308791 -4.63969,10.086281 0,0.89973 -0.45125,1.16432 -2.35078,1.37837 -1.94384,0.21903 -4.52311,1.48074 -5.95576,2.91339 -2.87602,2.87602 -4.12888,7.44927 -4.7882,17.47813 l -0.17223,2.61971 1.70533,-0.15924 c 2.26427,-0.21144 6.63991,-1.33692 9.51592,-2.44764 3.34423,-1.29154 5.88862,-2.86362 7.93659,-4.90369 2.22684,-2.21825 3.10894,-4.01659 3.33778,-6.8047 l 0.16407,-1.99896 1.71979,-0.87147 c 1.67478,-0.84867 3.95426,-2.59282 7.49809,-5.73717 0.957,-0.84913 1.85498,-1.4728 1.99552,-1.38595 0.14053,0.0868 0.4581,0.76786 0.70571,1.51335 0.34888,1.05038 0.4218,1.95776 0.32401,4.03178 -0.22056,4.67777 -2.18473,9.38622 -6.0794,14.57332 -4.51247,6.00993 -10.78476,10.57186 -16.9531,12.33026 -2.18636,0.62326 -7.43102,0.89985 -9.607,0.50666 z m -7.46206,-18.93559 c 2.35837,-1.66117 3.01222,-4.86489 1.46886,-7.19706 -0.75184,-1.1361 -2.97392,-2.4388 -4.1556,-2.43622 -2.76918,0.006 -5.54512,2.56377 -5.56464,5.1272 -0.0164,2.14956 1.6429,4.60773 3.48971,5.16995 1.54973,0.47178 3.54415,0.19372 4.76167,-0.66387 z m 2.74836,-14.78688 c 2.94826,-0.87554 4.56292,-4.17806 3.40161,-6.957451 -1.58709,-3.79844 -6.70088,-4.41088 -9.1061,-1.09057 -2.06165,2.846021 -0.71354,7.002681 2.60227,8.023661 1.57229,0.48413 1.55449,0.48399 3.10222,0.0244 z m 13.57796,-10.182111 c 3.52074,-1.79614 3.8775,-6.45742 0.68085,-8.89563 -0.74252,-0.56634 -1.34381,-0.76995 -2.52642,-0.8555 -2.01389,-0.14567 -2.67587,0.039 -3.85691,1.07598 -2.95184,2.59174 -2.40745,6.95504 1.09501,8.77664 1.11607,0.58045 3.36798,0.53085 4.60747,-0.10149 z m -7.3191,30.770371 c 0.0735,-0.41347 0.44268,-2.59723 0.82039,-4.8528 0.82536,-4.92873 1.22981,-6.35902 2.2554,-7.97587 0.63031,-0.99367 1.05002,-1.32957 2.19208,-1.75433 3.28734,-1.22265 5.2223,-0.98774 6.98816,0.84839 1.23474,1.28386 1.82349,2.97863 1.77369,5.1057 -0.0258,1.10142 -0.20382,1.62239 -0.8727,2.55379 -1.50258,2.09231 -3.23426,3.10439 -8.25295,4.82342 -1.89527,0.64918 -3.8041,1.36553 -4.24183,1.59189 l -0.79589,0.41157 z m 15.04638,-16.67522 c -1.32708,-0.97254 -2.41288,-1.929 -2.41288,-2.12547 0,-1.0686 2.80914,-5.31097 6.18159,-9.335441 5.02762,-5.99966 22.032284,-22.50433 23.161804,-22.48078 0.23223,0.005 0.69538,0.23653 1.02921,0.51487 l 0.60698,0.50607 -2.94784,4.93519 c -7.534334,12.61377 -13.490914,21.173181 -18.109864,26.023281 -2.31852,2.43455 -3.92986,3.73053 -4.63828,3.73053 -0.25182,0 -1.54364,-0.79571 -2.87072,-1.76825 z"
       style="fill:#000000;stroke-width:0.26458332" />
    <path
       style="fill:#000000;stroke-width:0.26458332"
       d=""
       id="path826"
       inkscape:connector-curvature="0" />
  </g>
</svg>
