<?xml version="1.0" encoding="UTF-8" standalone="no"?>
<!-- Created with Inkscape (http://www.inkscape.org/) -->

<svg
   xmlns:dc="http://purl.org/dc/elements/1.1/"
   xmlns:cc="http://creativecommons.org/ns#"
   xmlns:rdf="http://www.w3.org/1999/02/22-rdf-syntax-ns#"
   xmlns:svg="http://www.w3.org/2000/svg"
   xmlns="http://www.w3.org/2000/svg"
   xmlns:sodipodi="http://sodipodi.sourceforge.net/DTD/sodipodi-0.dtd"
   xmlns:inkscape="http://www.inkscape.org/namespaces/inkscape"
   width="7.9375mm"
   height="7.9370451mm"
   viewBox="0 0 7.9374999 7.9370452"
   version="1.1"
   id="svg8"
   inkscape:version="0.92.3 (2405546, 2018-03-11)"
   sodipodi:docname="palette_icon.svg">
  <defs
     id="defs2" />
  <sodipodi:namedview
     id="base"
     pagecolor="#ffffff"
     bordercolor="#666666"
     borderopacity="1.0"
     inkscape:pageopacity="0.0"
     inkscape:pageshadow="2"
     inkscape:zoom="28.601639"
     inkscape:cx="15"
     inkscape:cy="14.999141"
     inkscape:document-units="mm"
     inkscape:current-layer="layer1"
     showgrid="false"
     fit-margin-top="0"
     fit-margin-left="0"
     fit-margin-right="0"
     fit-margin-bottom="0"
     inkscape:window-width="1920"
     inkscape:window-height="1027"
     inkscape:window-x="-8"
     inkscape:window-y="-8"
     inkscape:window-maximized="1" />
  <metadata
     id="metadata5">
    <rdf:RDF>
      <cc:Work
         rdf:about="">
        <dc:format>image/svg+xml</dc:format>
        <dc:type
           rdf:resource="http://purl.org/dc/dcmitype/StillImage" />
        <dc:title></dc:title>
      </cc:Work>
    </rdf:RDF>
  </metadata>
  <g
     inkscape:label="Layer 1"
     inkscape:groupmode="layer"
     id="layer1"
     transform="translate(-43.512637,-131.4732)">
    <path
       inkscape:connector-curvature="0"
       id="path830"
       d="m 46.072369,139.38802 c -0.431255,-0.0813 -0.983487,-0.36536 -1.371674,-0.70567 -0.247873,-0.21725 -0.518691,-0.60388 -0.7479,-1.06756 -0.349923,-0.70794 -0.462266,-1.20228 -0.436672,-1.92167 0.01926,-0.53842 0.097,-0.86602 0.322404,-1.35693 0.218148,-0.4751 0.492129,-0.86465 0.929038,-1.32095 0.580663,-0.60641 0.776674,-0.74865 1.283035,-0.93092 0.564998,-0.20349 0.856682,-0.26138 1.233095,-0.24525 0.260816,0.0131 0.327116,0.0263 0.467976,0.10675 0.170175,0.097 0.283369,0.23699 0.374375,0.46241 0.07097,0.17606 0.0927,0.65381 0.0463,1.01901 -0.03572,0.28106 -0.04687,0.30964 -0.23705,0.60701 -0.314023,0.49103 -0.552526,1.03153 -0.552526,1.25221 0,0.11175 -0.05376,0.14457 -0.279946,0.171 -0.231475,0.0271 -0.538641,0.18375 -0.70925,0.36173 -0.342495,0.35703 -0.491695,0.92481 -0.570211,2.16995 l -0.02049,0.32521 0.203075,-0.0201 c 0.269644,-0.0263 0.790723,-0.16593 1.133219,-0.30387 0.398251,-0.16031 0.701255,-0.35553 0.94514,-0.6088 0.265188,-0.2754 0.370233,-0.49868 0.397487,-0.84483 l 0.0195,-0.24825 0.204798,-0.10825 c 0.199449,-0.10562 0.470899,-0.3219 0.89292,-0.71227 0.113987,-0.10512 0.2209,-0.18281 0.237648,-0.17194 0.01669,0.0131 0.05454,0.0954 0.08405,0.18802 0.04155,0.13049 0.05024,0.24299 0.03856,0.50054 -0.02625,0.58074 -0.260175,1.16532 -0.723975,1.80929 -0.537373,0.74615 -1.284323,1.31251 -2.01889,1.53084 -0.260363,0.0772 -0.884934,0.11175 -1.144062,0.0629 z m -0.888632,-2.35088 c 0.280848,-0.20627 0.358713,-0.604 0.174919,-0.89354 -0.08953,-0.141 -0.354155,-0.3028 -0.494878,-0.30248 -0.329772,6.4e-4 -0.660348,0.3183 -0.662673,0.63657 -0.0019,0.26686 0.195649,0.57206 0.415579,0.64187 0.184556,0.0588 0.422061,0.025 0.56705,-0.0823 z m 0.327293,-1.83584 c 0.351096,-0.10875 0.543381,-0.51872 0.405088,-0.8638 -0.189001,-0.47156 -0.797987,-0.54759 -1.084418,-0.13519 -0.245524,0.35333 -0.08498,0.8694 0.309898,0.99615 0.187256,0.0601 0.185119,0.06 0.369432,10e-4 z m 1.616954,-1.26415 c 0.419272,-0.22299 0.461759,-0.80169 0.08108,-1.10439 -0.08843,-0.0703 -0.160031,-0.0954 -0.300862,-0.10625 -0.239826,-0.0169 -0.318661,0.006 -0.459308,0.1335 -0.351523,0.32179 -0.286693,0.86352 0.130406,1.08965 0.132901,0.0721 0.401083,0.0658 0.548689,-0.0131 z m -0.871609,3.82022 c 0.0087,-0.0513 0.05273,-0.32243 0.09771,-0.60247 0.09826,-0.61193 0.146456,-0.78949 0.268589,-0.99023 0.07506,-0.1235 0.125044,-0.165 0.261047,-0.21775 0.391479,-0.15168 0.621905,-0.12237 0.832198,0.10513 0.147056,0.15956 0.217149,0.36981 0.211224,0.63389 -0.003,0.13668 -0.02425,0.20148 -0.103937,0.31706 -0.17895,0.25976 -0.385159,0.38541 -0.982817,0.59884 -0.2257,0.0809 -0.453019,0.1695 -0.505146,0.19773 l -0.09479,0.0513 z m 1.791824,-2.07026 c -0.158025,-0.12075 -0.287343,-0.23951 -0.287343,-0.26388 0,-0.13275 0.334533,-0.65937 0.736146,-1.15902 0.59872,-0.74488 2.623748,-2.79393 2.75826,-2.79101 0.02767,6e-4 0.08281,0.0295 0.122575,0.064 l 0.0723,0.0629 -0.351048,0.61268 c -0.897237,1.56604 -1.606589,2.6287 -2.156645,3.23088 -0.276101,0.30225 -0.467992,0.46313 -0.552353,0.46313 -0.02998,0 -0.183826,-0.0987 -0.341866,-0.2195 z"
       style="fill:#da1f26;fill-opacity:1;stroke-width:0.03217148" />
    <path
       style="fill:#000000;stroke-width:0.26458332"
       d=""
       id="path826"
       inkscape:connector-curvature="0" />
  </g>
</svg>
